<svg xmlns="http://www.w3.org/2000/svg" xmlns:xlink="http://www.w3.org/1999/xlink" width="500" zoomAndPan="magnify" viewBox="0 0 375 374.999991" height="500" preserveAspectRatio="xMidYMid meet" version="1.0"><defs><g/><clipPath id="2ccfcde7ef"><path d="M 4.042969 87.027344 L 173.964844 87.027344 L 173.964844 244 L 4.042969 244 Z M 4.042969 87.027344 " clip-rule="nonzero"/></clipPath><clipPath id="8f99ef807b"><path d="M 32 143 L 118 143 L 118 274.96875 L 32 274.96875 Z M 32 143 " clip-rule="nonzero"/></clipPath></defs><g clip-path="url(#2ccfcde7ef)"><path fill="#233dff" d="M 115.480469 227.304688 C 148.457031 221.367188 173.683594 192.351562 173.683594 157.730469 C 173.683594 118.855469 141.878906 87.050781 103 87.050781 L 4.042969 87.050781 L 32.316406 115.324219 L 103 115.324219 C 126.328125 115.324219 145.410156 134.40625 145.410156 157.730469 C 145.410156 181.058594 126.328125 200.140625 103 200.140625 L 88.867188 200.140625 L 88.867188 243.304688 L 117.140625 226.984375 C 116.589844 227.097656 116.035156 227.203125 115.480469 227.304688 Z M 115.480469 227.304688 " fill-opacity="1" fill-rule="evenodd"/></g><g clip-path="url(#8f99ef807b)"><path fill="#050a30" d="M 60.59375 228.414062 C 60.59375 209.566406 60.59375 190.71875 60.59375 171.867188 L 103 171.867188 C 110.777344 171.867188 117.136719 165.507812 117.136719 157.734375 C 117.136719 149.957031 110.777344 143.597656 103 143.597656 L 32.316406 143.597656 C 32.316406 171.867188 32.316406 200.140625 32.316406 228.414062 L 32.316406 275.953125 L 60.589844 259.632812 L 60.589844 228.414062 Z M 60.59375 228.414062 " fill-opacity="1" fill-rule="evenodd"/></g><g fill="#050a30" fill-opacity="1"><g transform="translate(187.282595, 180.503986)"><g><path d="M 29.140625 0 L 19.015625 -18.390625 L 16.171875 -18.390625 L 16.171875 0 L 4.296875 0 L 4.296875 -48.71875 L 24.21875 -48.71875 C 28.0625 -48.71875 31.332031 -48.046875 34.03125 -46.703125 C 36.738281 -45.359375 38.765625 -43.515625 40.109375 -41.171875 C 41.453125 -38.835938 42.125 -36.238281 42.125 -33.375 C 42.125 -30.132812 41.207031 -27.242188 39.375 -24.703125 C 37.550781 -22.160156 34.859375 -20.359375 31.296875 -19.296875 L 42.53125 0 Z M 16.171875 -26.78125 L 23.515625 -26.78125 C 25.691406 -26.78125 27.320312 -27.3125 28.40625 -28.375 C 29.5 -29.445312 30.046875 -30.953125 30.046875 -32.890625 C 30.046875 -34.742188 29.5 -36.203125 28.40625 -37.265625 C 27.320312 -38.328125 25.691406 -38.859375 23.515625 -38.859375 L 16.171875 -38.859375 Z M 16.171875 -26.78125 "/></g></g></g><g fill="#050a30" fill-opacity="1"><g transform="translate(238.052055, 180.503986)"><g><path d="M 27.34375 0.484375 C 22.757812 0.484375 18.554688 -0.578125 14.734375 -2.703125 C 10.921875 -4.828125 7.894531 -7.796875 5.65625 -11.609375 C 3.414062 -15.429688 2.296875 -19.726562 2.296875 -24.5 C 2.296875 -29.257812 3.414062 -33.535156 5.65625 -37.328125 C 7.894531 -41.117188 10.921875 -44.078125 14.734375 -46.203125 C 18.554688 -48.335938 22.757812 -49.40625 27.34375 -49.40625 C 31.914062 -49.40625 36.109375 -48.335938 39.921875 -46.203125 C 43.742188 -44.078125 46.753906 -41.117188 48.953125 -37.328125 C 51.148438 -33.535156 52.25 -29.257812 52.25 -24.5 C 52.25 -19.726562 51.140625 -15.429688 48.921875 -11.609375 C 46.703125 -7.796875 43.691406 -4.828125 39.890625 -2.703125 C 36.097656 -0.578125 31.914062 0.484375 27.34375 0.484375 Z M 27.34375 -10.34375 C 31.226562 -10.34375 34.335938 -11.632812 36.671875 -14.21875 C 39.003906 -16.8125 40.171875 -20.238281 40.171875 -24.5 C 40.171875 -28.800781 39.003906 -32.234375 36.671875 -34.796875 C 34.335938 -37.367188 31.226562 -38.65625 27.34375 -38.65625 C 23.40625 -38.65625 20.269531 -37.378906 17.9375 -34.828125 C 15.601562 -32.285156 14.4375 -28.84375 14.4375 -24.5 C 14.4375 -20.195312 15.601562 -16.757812 17.9375 -14.1875 C 20.269531 -11.625 23.40625 -10.34375 27.34375 -10.34375 Z M 27.34375 -10.34375 "/></g></g></g><g fill="#050a30" fill-opacity="1"><g transform="translate(298.114618, 180.503986)"><g><path d="M 41.421875 -33.03125 C 41.421875 -30.207031 40.773438 -27.625 39.484375 -25.28125 C 38.191406 -22.945312 36.203125 -21.0625 33.515625 -19.625 C 30.828125 -18.195312 27.492188 -17.484375 23.515625 -17.484375 L 16.171875 -17.484375 L 16.171875 0 L 4.296875 0 L 4.296875 -48.71875 L 23.515625 -48.71875 C 27.410156 -48.71875 30.695312 -48.046875 33.375 -46.703125 C 36.0625 -45.359375 38.070312 -43.503906 39.40625 -41.140625 C 40.75 -38.785156 41.421875 -36.082031 41.421875 -33.03125 Z M 22.625 -26.921875 C 24.882812 -26.921875 26.570312 -27.453125 27.6875 -28.515625 C 28.800781 -29.578125 29.359375 -31.082031 29.359375 -33.03125 C 29.359375 -34.96875 28.800781 -36.46875 27.6875 -37.53125 C 26.570312 -38.601562 24.882812 -39.140625 22.625 -39.140625 L 16.171875 -39.140625 L 16.171875 -26.921875 Z M 22.625 -26.921875 "/></g></g></g><g fill="#233dff" fill-opacity="1"><g transform="translate(187.620974, 229.707745)"><g><path d="M 26.03125 -6.46875 L 12.359375 -6.46875 L 10.171875 0 L 0.828125 0 L 14.078125 -36.609375 L 24.40625 -36.609375 L 37.65625 0 L 28.21875 0 Z M 23.734375 -13.359375 L 19.1875 -26.75 L 14.703125 -13.359375 Z M 23.734375 -13.359375 "/></g></g></g><g fill="#233dff" fill-opacity="1"><g transform="translate(230.218408, 229.707745)"><g><path d="M 29.578125 -36.609375 L 29.578125 -29.46875 L 19.875 -29.46875 L 19.875 0 L 10.953125 0 L 10.953125 -29.46875 L 1.25 -29.46875 L 1.25 -36.609375 Z M 29.578125 -36.609375 "/></g></g></g><g fill="#233dff" fill-opacity="1"><g transform="translate(265.204189, 229.707745)"><g><path d="M 21.90625 0 L 14.296875 -13.828125 L 12.15625 -13.828125 L 12.15625 0 L 3.234375 0 L 3.234375 -36.609375 L 18.203125 -36.609375 C 21.085938 -36.609375 23.546875 -36.101562 25.578125 -35.09375 C 27.617188 -34.09375 29.140625 -32.710938 30.140625 -30.953125 C 31.148438 -29.203125 31.65625 -27.25 31.65625 -25.09375 C 31.65625 -22.65625 30.96875 -20.476562 29.59375 -18.5625 C 28.21875 -16.65625 26.191406 -15.300781 23.515625 -14.5 L 31.96875 0 Z M 12.15625 -20.125 L 17.6875 -20.125 C 19.3125 -20.125 20.53125 -20.523438 21.34375 -21.328125 C 22.164062 -22.128906 22.578125 -23.257812 22.578125 -24.71875 C 22.578125 -26.113281 22.164062 -27.207031 21.34375 -28 C 20.53125 -28.800781 19.3125 -29.203125 17.6875 -29.203125 L 12.15625 -29.203125 Z M 12.15625 -20.125 "/></g></g></g><g fill="#233dff" fill-opacity="1"><g transform="translate(303.370149, 229.707745)"><g><path d="M 20.546875 0.359375 C 17.109375 0.359375 13.953125 -0.4375 11.078125 -2.03125 C 8.210938 -3.632812 5.9375 -5.867188 4.25 -8.734375 C 2.5625 -11.597656 1.71875 -14.820312 1.71875 -18.40625 C 1.71875 -21.988281 2.5625 -25.207031 4.25 -28.0625 C 5.9375 -30.914062 8.210938 -33.140625 11.078125 -34.734375 C 13.953125 -36.335938 17.109375 -37.140625 20.546875 -37.140625 C 23.992188 -37.140625 27.148438 -36.335938 30.015625 -34.734375 C 32.878906 -33.140625 35.140625 -30.914062 36.796875 -28.0625 C 38.453125 -25.207031 39.28125 -21.988281 39.28125 -18.40625 C 39.28125 -14.820312 38.441406 -11.597656 36.765625 -8.734375 C 35.097656 -5.867188 32.835938 -3.632812 29.984375 -2.03125 C 27.140625 -0.4375 23.992188 0.359375 20.546875 0.359375 Z M 20.546875 -7.765625 C 23.472656 -7.765625 25.8125 -8.738281 27.5625 -10.6875 C 29.320312 -12.632812 30.203125 -15.207031 30.203125 -18.40625 C 30.203125 -21.644531 29.320312 -24.226562 27.5625 -26.15625 C 25.8125 -28.082031 23.472656 -29.046875 20.546875 -29.046875 C 17.585938 -29.046875 15.226562 -28.085938 13.46875 -26.171875 C 11.71875 -24.265625 10.84375 -21.675781 10.84375 -18.40625 C 10.84375 -15.175781 11.71875 -12.59375 13.46875 -10.65625 C 15.226562 -8.726562 17.585938 -7.765625 20.546875 -7.765625 Z M 20.546875 -7.765625 "/></g></g></g><g fill="#233dff" fill-opacity="1"><g transform="translate(348.522169, 229.707745)"><g><path d="M 12.15625 -6.890625 L 23.828125 -6.890625 L 23.828125 0 L 3.234375 0 L 3.234375 -36.609375 L 12.15625 -36.609375 Z M 12.15625 -6.890625 "/></g></g></g></svg>