<svg xmlns="http://www.w3.org/2000/svg" xmlns:xlink="http://www.w3.org/1999/xlink" width="200" zoomAndPan="magnify" viewBox="0 0 150 149.999998" height="200" preserveAspectRatio="xMidYMid meet" version="1.0"><defs><clipPath id="93562ba64b"><path d="M 47.515625 52.59375 L 92.332031 52.59375 L 92.332031 97.40625 L 47.515625 97.40625 Z M 47.515625 52.59375 " clip-rule="nonzero"/></clipPath><clipPath id="bbab29b451"><path d="M 69.925781 52.59375 C 57.546875 52.59375 47.515625 62.625 47.515625 75 C 47.515625 87.375 57.546875 97.40625 69.925781 97.40625 C 82.300781 97.40625 92.332031 87.375 92.332031 75 C 92.332031 62.625 82.300781 52.59375 69.925781 52.59375 Z M 69.925781 52.59375 " clip-rule="nonzero"/></clipPath><clipPath id="b321064c96"><path d="M 36.890625 56.320312 L 69.890625 56.320312 L 69.890625 88 L 36.890625 88 Z M 36.890625 56.320312 " clip-rule="nonzero"/></clipPath><clipPath id="67cb75f011"><path d="M 42 67 L 60 67 L 60 93.070312 L 42 93.070312 Z M 42 67 " clip-rule="nonzero"/></clipPath><clipPath id="1a5e5327c9"><path d="M 100 69 L 113.394531 69 L 113.394531 83 L 100 83 Z M 100 69 " clip-rule="nonzero"/></clipPath><clipPath id="4f330a2f08"><path d="M 91 55.855469 L 98 55.855469 L 98 62 L 91 62 Z M 91 55.855469 " clip-rule="nonzero"/></clipPath><clipPath id="483d08a047"><path d="M 91 87 L 99 87 L 99 93.355469 L 91 93.355469 Z M 91 87 " clip-rule="nonzero"/></clipPath><clipPath id="ce3ddff3e9"><path d="M 75.144531 70 L 87 70 L 87 83 L 75.144531 83 Z M 75.144531 70 " clip-rule="nonzero"/></clipPath></defs><g clip-path="url(#93562ba64b)"><g clip-path="url(#bbab29b451)"><path fill="#ffffff" d="M 47.515625 52.59375 L 92.332031 52.59375 L 92.332031 97.40625 L 47.515625 97.40625 Z M 47.515625 52.59375 " fill-opacity="1" fill-rule="nonzero"/></g></g><g clip-path="url(#b321064c96)"><path fill="#233dff" d="M 58.785156 83.875 C 65.261719 82.710938 70.21875 77.007812 70.21875 70.207031 C 70.21875 62.570312 63.972656 56.320312 56.332031 56.320312 L 36.890625 56.320312 L 42.445312 61.875 L 56.332031 61.875 C 60.914062 61.875 64.664062 65.625 64.664062 70.207031 C 64.664062 74.789062 60.914062 78.539062 56.332031 78.539062 L 53.554688 78.539062 L 53.554688 87.019531 L 59.109375 83.8125 C 59.003906 83.835938 58.894531 83.855469 58.785156 83.875 Z M 58.785156 83.875 " fill-opacity="1" fill-rule="evenodd"/></g><g clip-path="url(#67cb75f011)"><path fill="#050a30" d="M 48 84.09375 C 48 80.390625 48 76.6875 48 72.984375 L 56.332031 72.984375 C 57.859375 72.984375 59.109375 71.734375 59.109375 70.207031 C 59.109375 68.679688 57.859375 67.429688 56.332031 67.429688 L 42.445312 67.429688 C 42.445312 72.984375 42.445312 78.539062 42.445312 84.09375 L 42.445312 93.433594 L 48 90.226562 Z M 48 84.09375 " fill-opacity="1" fill-rule="evenodd"/></g><g clip-path="url(#1a5e5327c9)"><path fill="#004cea" d="M 106.996094 81.136719 C 104.171875 81.136719 101.871094 78.839844 101.871094 76.015625 C 101.871094 73.191406 104.171875 70.894531 106.996094 70.894531 C 109.816406 70.894531 112.117188 73.191406 112.117188 76.015625 C 112.117188 78.839844 109.816406 81.136719 106.996094 81.136719 Z M 106.996094 69.976562 C 103.664062 69.976562 100.953125 72.683594 100.953125 76.015625 C 100.953125 79.34375 103.664062 82.054688 106.996094 82.054688 C 110.324219 82.054688 113.035156 79.34375 113.035156 76.015625 C 113.035156 72.683594 110.324219 69.976562 106.996094 69.976562 " fill-opacity="1" fill-rule="nonzero"/></g><g clip-path="url(#4f330a2f08)"><path fill="#004cea" d="M 94.816406 56.773438 C 95.957031 56.773438 96.882812 57.699219 96.882812 58.839844 C 96.882812 59.976562 95.957031 60.902344 94.816406 60.902344 C 93.679688 60.902344 92.753906 59.976562 92.753906 58.839844 C 92.753906 57.699219 93.679688 56.773438 94.816406 56.773438 Z M 94.816406 61.820312 C 96.460938 61.820312 97.800781 60.484375 97.800781 58.839844 C 97.800781 57.195312 96.460938 55.855469 94.816406 55.855469 C 93.175781 55.855469 91.835938 57.195312 91.835938 58.839844 C 91.835938 60.484375 93.175781 61.820312 94.816406 61.820312 " fill-opacity="1" fill-rule="nonzero"/></g><path fill="#004cea" d="M 92.433594 65.914062 C 92.433594 64.601562 93.503906 63.53125 94.816406 63.53125 C 96.132812 63.53125 97.199219 64.601562 97.199219 65.914062 L 97.199219 67.675781 L 92.433594 67.675781 Z M 91.515625 68.132812 C 91.515625 68.386719 91.722656 68.59375 91.976562 68.59375 L 97.660156 68.59375 C 97.914062 68.59375 98.117188 68.386719 98.117188 68.132812 L 98.117188 65.914062 C 98.117188 64.09375 96.636719 62.613281 94.816406 62.613281 C 92.996094 62.613281 91.515625 64.09375 91.515625 65.914062 L 91.515625 68.132812 " fill-opacity="1" fill-rule="nonzero"/><path fill="#004cea" d="M 94.816406 85.746094 C 93.679688 85.746094 92.753906 84.816406 92.753906 83.679688 C 92.753906 82.542969 93.679688 81.617188 94.816406 81.617188 C 95.957031 81.617188 96.882812 82.542969 96.882812 83.679688 C 96.882812 84.816406 95.957031 85.746094 94.816406 85.746094 Z M 94.816406 80.699219 C 93.175781 80.699219 91.835938 82.035156 91.835938 83.679688 C 91.835938 85.324219 93.175781 86.664062 94.816406 86.664062 C 96.460938 86.664062 97.800781 85.324219 97.800781 83.679688 C 97.800781 82.035156 96.460938 80.699219 94.816406 80.699219 " fill-opacity="1" fill-rule="nonzero"/><g clip-path="url(#483d08a047)"><path fill="#004cea" d="M 97.199219 92.515625 L 92.433594 92.515625 L 92.433594 90.757812 C 92.433594 89.441406 93.503906 88.375 94.816406 88.375 C 96.132812 88.375 97.199219 89.441406 97.199219 90.757812 Z M 98.117188 92.976562 L 98.117188 90.757812 C 98.117188 88.9375 96.636719 87.457031 94.816406 87.457031 C 92.996094 87.457031 91.515625 88.9375 91.515625 90.757812 L 91.515625 92.976562 C 91.515625 93.226562 91.722656 93.433594 91.976562 93.433594 L 97.660156 93.433594 C 97.914062 93.433594 98.117188 93.226562 98.117188 92.976562 " fill-opacity="1" fill-rule="nonzero"/></g><g clip-path="url(#ce3ddff3e9)"><path fill="#004cea" d="M 76.855469 76.507812 L 77.851562 75.59375 L 78.910156 77.335938 L 79.96875 79.074219 L 78.699219 79.539062 C 78.03125 79.785156 77.277344 79.519531 76.90625 78.910156 L 76.585938 78.386719 C 76.21875 77.777344 76.332031 76.988281 76.855469 76.507812 Z M 81.414062 71.515625 L 85.230469 77.796875 C 83.648438 78 81.65625 78.546875 80.863281 78.773438 L 79.695312 76.859375 L 78.53125 74.9375 C 79.097656 74.339844 80.503906 72.820312 81.414062 71.515625 Z M 75.800781 78.863281 L 76.121094 79.386719 C 76.570312 80.125 77.363281 80.550781 78.191406 80.550781 C 78.40625 80.550781 78.621094 80.519531 78.835938 80.460938 C 79.488281 80.734375 80.609375 81.308594 81.664062 82.332031 C 81.75 82.414062 81.867188 82.460938 81.984375 82.460938 C 81.996094 82.460938 82.011719 82.457031 82.023438 82.457031 C 82.15625 82.445312 82.277344 82.378906 82.355469 82.269531 L 82.894531 81.523438 C 83.257812 81.019531 83.207031 80.332031 82.773438 79.882812 C 82.597656 79.703125 82.308594 79.699219 82.125 79.875 C 81.945312 80.050781 81.941406 80.34375 82.117188 80.523438 C 82.238281 80.652344 82.253906 80.84375 82.152344 80.984375 L 81.914062 81.3125 C 81.261719 80.746094 80.605469 80.324219 80.046875 80.023438 L 80.796875 79.75 C 81.023438 79.683594 84.222656 78.734375 86.027344 78.640625 C 86.1875 78.632812 86.332031 78.542969 86.410156 78.398438 C 86.484375 78.253906 86.480469 78.082031 86.394531 77.945312 L 81.816406 70.410156 C 81.734375 70.273438 81.585938 70.191406 81.425781 70.191406 C 81.421875 70.191406 81.421875 70.191406 81.421875 70.191406 C 81.257812 70.191406 81.109375 70.277344 81.027344 70.417969 C 80.117188 71.976562 77.796875 74.382812 77.636719 74.546875 L 76.234375 75.828125 C 75.386719 76.605469 75.207031 77.882812 75.800781 78.863281 " fill-opacity="1" fill-rule="nonzero"/></g><path fill="#004cea" d="M 107.175781 75.5625 C 107.148438 75.558594 107.078125 75.558594 107.003906 75.554688 C 106.949219 75.554688 106.890625 75.554688 106.867188 75.550781 C 106.539062 75.53125 106.28125 75.257812 106.28125 74.929688 C 106.28125 74.621094 106.507812 74.355469 106.808594 74.308594 C 106.882812 74.300781 106.941406 74.296875 106.960938 74.296875 C 106.964844 74.296875 106.964844 74.296875 106.964844 74.296875 C 106.972656 74.296875 106.980469 74.296875 106.988281 74.296875 C 107.378906 74.296875 107.515625 74.59375 107.539062 74.648438 C 107.621094 74.886719 107.886719 75.011719 108.125 74.925781 C 108.363281 74.84375 108.488281 74.578125 108.402344 74.339844 C 108.304688 74.054688 108 73.613281 107.445312 73.445312 L 107.445312 73.132812 C 107.445312 72.878906 107.242188 72.671875 106.988281 72.671875 C 106.734375 72.671875 106.527344 72.878906 106.527344 73.132812 L 106.527344 73.429688 C 105.855469 73.597656 105.363281 74.21875 105.363281 74.929688 C 105.363281 75.742188 106 76.421875 106.8125 76.46875 C 106.839844 76.472656 106.910156 76.472656 106.984375 76.472656 C 107.039062 76.476562 107.097656 76.476562 107.121094 76.476562 C 107.449219 76.496094 107.707031 76.773438 107.707031 77.101562 C 107.707031 77.410156 107.480469 77.675781 107.179688 77.71875 C 107.105469 77.730469 107.046875 77.734375 107.03125 77.734375 C 107.027344 77.734375 107.023438 77.734375 107.023438 77.734375 C 107.015625 77.730469 107.007812 77.730469 107 77.730469 C 106.609375 77.730469 106.472656 77.441406 106.449219 77.378906 C 106.363281 77.144531 106.101562 77.019531 105.863281 77.105469 C 105.625 77.1875 105.5 77.449219 105.585938 77.691406 C 105.683594 77.972656 105.984375 78.410156 106.527344 78.582031 L 106.527344 78.898438 C 106.527344 79.152344 106.734375 79.355469 106.988281 79.355469 C 107.242188 79.355469 107.445312 79.152344 107.445312 78.898438 L 107.445312 78.601562 C 108.125 78.441406 108.625 77.816406 108.625 77.101562 C 108.625 76.289062 107.988281 75.609375 107.175781 75.5625 " fill-opacity="1" fill-rule="nonzero"/><path fill="#004cea" d="M 86.042969 75.070312 C 86.050781 75.070312 86.054688 75.070312 86.0625 75.070312 C 86.308594 75.070312 86.511719 74.878906 86.523438 74.632812 C 86.550781 74.003906 86.394531 73.382812 86.066406 72.839844 C 85.714844 72.261719 85.195312 71.816406 84.570312 71.558594 C 84.335938 71.460938 84.066406 71.574219 83.96875 71.808594 C 83.871094 72.042969 83.984375 72.3125 84.21875 72.410156 C 84.664062 72.589844 85.03125 72.90625 85.28125 73.316406 C 85.515625 73.703125 85.625 74.140625 85.605469 74.589844 C 85.59375 74.839844 85.789062 75.058594 86.042969 75.070312 " fill-opacity="1" fill-rule="nonzero"/><path fill="#004cea" d="M 87.929688 75.605469 C 87.949219 75.609375 87.972656 75.609375 87.996094 75.609375 C 88.21875 75.609375 88.414062 75.445312 88.449219 75.21875 C 88.617188 74.039062 88.371094 72.832031 87.753906 71.816406 C 87.113281 70.761719 86.113281 69.972656 84.9375 69.59375 C 84.699219 69.515625 84.4375 69.648438 84.359375 69.890625 C 84.285156 70.132812 84.417969 70.390625 84.65625 70.46875 C 85.621094 70.777344 86.441406 71.425781 86.96875 72.292969 C 87.476562 73.128906 87.679688 74.121094 87.539062 75.085938 C 87.503906 75.335938 87.675781 75.570312 87.929688 75.605469 " fill-opacity="1" fill-rule="nonzero"/><path fill="#004cea" d="M 89.019531 89.15625 C 89.070312 89.175781 89.121094 89.183594 89.171875 89.183594 C 89.363281 89.183594 89.539062 89.066406 89.605469 88.878906 C 89.691406 88.640625 89.566406 88.378906 89.328125 88.292969 C 86.945312 87.4375 84.816406 85.957031 83.171875 84.015625 C 83.007812 83.820312 82.71875 83.796875 82.523438 83.960938 C 82.332031 84.125 82.304688 84.414062 82.46875 84.609375 C 84.21875 86.675781 86.484375 88.246094 89.019531 89.15625 " fill-opacity="1" fill-rule="nonzero"/><path fill="#004cea" d="M 99.730469 88.878906 C 99.796875 89.066406 99.972656 89.183594 100.160156 89.183594 C 100.214844 89.183594 100.265625 89.175781 100.316406 89.15625 C 102.851562 88.246094 105.117188 86.675781 106.863281 84.609375 C 107.027344 84.414062 107.003906 84.125 106.8125 83.960938 C 106.617188 83.796875 106.328125 83.820312 106.164062 84.015625 C 104.519531 85.957031 102.390625 87.4375 100.007812 88.292969 C 99.769531 88.378906 99.644531 88.640625 99.730469 88.878906 " fill-opacity="1" fill-rule="nonzero"/><path fill="#004cea" d="M 89.605469 61.425781 C 89.519531 61.1875 89.257812 61.0625 89.019531 61.148438 C 86.484375 62.058594 84.21875 63.632812 82.46875 65.699219 C 82.304688 65.890625 82.332031 66.179688 82.523438 66.34375 C 82.609375 66.417969 82.714844 66.453125 82.820312 66.453125 C 82.949219 66.453125 83.082031 66.398438 83.171875 66.289062 C 84.816406 64.347656 86.945312 62.867188 89.328125 62.015625 C 89.566406 61.929688 89.691406 61.664062 89.605469 61.425781 " fill-opacity="1" fill-rule="nonzero"/><path fill="#004cea" d="M 106.164062 66.289062 C 106.253906 66.398438 106.382812 66.453125 106.515625 66.453125 C 106.621094 66.453125 106.722656 66.417969 106.8125 66.34375 C 107.003906 66.179688 107.027344 65.890625 106.863281 65.699219 C 105.117188 63.632812 102.851562 62.058594 100.316406 61.148438 C 100.078125 61.0625 99.816406 61.1875 99.730469 61.425781 C 99.644531 61.664062 99.769531 61.929688 100.007812 62.015625 C 102.390625 62.867188 104.519531 64.347656 106.164062 66.289062 " fill-opacity="1" fill-rule="nonzero"/></svg>