<svg xmlns="http://www.w3.org/2000/svg" xmlns:xlink="http://www.w3.org/1999/xlink" width="120" zoomAndPan="magnify" viewBox="0 0 90 60" height="80" preserveAspectRatio="xMidYMid meet" version="1.0"><defs><clipPath id="204b304a69"><path d="M 19.511719 12.757812 L 50.261719 12.757812 L 50.261719 42 L 19.511719 42 Z M 19.511719 12.757812 " clip-rule="nonzero"/></clipPath><clipPath id="257f12302e"><path d="M 24 23 L 41 23 L 41 47.257812 L 24 47.257812 Z M 24 23 " clip-rule="nonzero"/></clipPath><clipPath id="f15a984c32"><path d="M 56.515625 23.351562 L 70 23.351562 L 70 36.851562 L 56.515625 36.851562 Z M 56.515625 23.351562 " clip-rule="nonzero"/></clipPath></defs><g clip-path="url(#204b304a69)"><path fill="#233dff" d="M 39.847656 38.355469 C 45.867188 37.269531 50.472656 31.972656 50.472656 25.65625 C 50.472656 18.5625 44.667969 12.757812 37.570312 12.757812 L 19.511719 12.757812 L 24.671875 17.917969 L 37.570312 17.917969 C 41.828125 17.917969 45.3125 21.398438 45.3125 25.65625 C 45.3125 29.914062 41.828125 33.394531 37.570312 33.394531 L 34.992188 33.394531 L 34.992188 41.273438 L 40.152344 38.296875 C 40.050781 38.316406 39.949219 38.335938 39.847656 38.355469 Z M 39.847656 38.355469 " fill-opacity="1" fill-rule="evenodd"/></g><g clip-path="url(#257f12302e)"><path fill="#050a30" d="M 29.832031 38.554688 C 29.832031 35.117188 29.832031 31.675781 29.832031 28.234375 L 37.570312 28.234375 C 38.992188 28.234375 40.152344 27.074219 40.152344 25.65625 C 40.152344 24.238281 38.992188 23.078125 37.570312 23.078125 L 24.671875 23.078125 C 24.671875 28.234375 24.671875 33.394531 24.671875 38.554688 L 24.671875 47.234375 L 29.832031 44.253906 Z M 29.832031 38.554688 " fill-opacity="1" fill-rule="evenodd"/></g><g clip-path="url(#f15a984c32)"><path fill="#004cea" d="M 66.75 32.832031 C 66.75 32.976562 66.632812 33.09375 66.484375 33.09375 L 65.929688 33.09375 C 65.78125 33.09375 65.664062 32.976562 65.664062 32.832031 L 65.664062 26.328125 C 65.664062 26.183594 65.78125 26.0625 65.929688 26.0625 L 66.484375 26.0625 C 66.632812 26.0625 66.75 26.183594 66.75 26.328125 Z M 65.082031 32.832031 C 65.082031 32.976562 64.964844 33.09375 64.820312 33.09375 L 64.261719 33.09375 C 64.117188 33.09375 64 32.976562 64 32.832031 L 64 27.359375 C 64 27.210938 64.117188 27.09375 64.261719 27.09375 L 64.820312 27.09375 C 64.964844 27.09375 65.082031 27.210938 65.082031 27.359375 Z M 63.417969 32.832031 C 63.417969 32.976562 63.300781 33.09375 63.152344 33.09375 L 62.597656 33.09375 C 62.449219 33.09375 62.332031 32.976562 62.332031 32.832031 L 62.332031 28.886719 C 62.332031 28.738281 62.449219 28.621094 62.597656 28.621094 L 63.152344 28.621094 C 63.300781 28.621094 63.417969 28.738281 63.417969 28.886719 Z M 61.75 32.832031 C 61.75 32.976562 61.632812 33.09375 61.488281 33.09375 L 60.929688 33.09375 C 60.785156 33.09375 60.667969 32.976562 60.667969 32.832031 L 60.667969 28.21875 C 60.667969 28.074219 60.785156 27.953125 60.929688 27.953125 L 61.488281 27.953125 C 61.632812 27.953125 61.75 28.074219 61.75 28.21875 Z M 60.085938 32.832031 C 60.085938 32.976562 59.96875 33.09375 59.820312 33.09375 L 59.265625 33.09375 C 59.117188 33.09375 59 32.976562 59 32.832031 L 59 30.300781 C 59 30.15625 59.117188 30.039062 59.265625 30.039062 L 59.820312 30.039062 C 59.96875 30.039062 60.085938 30.15625 60.085938 30.300781 Z M 63.160156 23.351562 C 59.492188 23.351562 56.515625 26.328125 56.515625 29.996094 C 56.515625 33.667969 59.492188 36.640625 63.160156 36.640625 C 66.832031 36.640625 69.804688 33.667969 69.804688 29.996094 C 69.804688 26.328125 66.832031 23.351562 63.160156 23.351562 " fill-opacity="1" fill-rule="nonzero"/></g></svg>