<svg xmlns="http://www.w3.org/2000/svg" xmlns:xlink="http://www.w3.org/1999/xlink" width="200" zoomAndPan="magnify" viewBox="0 0 150 149.999998" height="200" preserveAspectRatio="xMidYMid meet" version="1.0"><defs><clipPath id="9b39b2abd8"><path d="M 26.488281 62.097656 L 57.988281 62.097656 L 57.988281 92 L 26.488281 92 Z M 26.488281 62.097656 " clip-rule="nonzero"/></clipPath><clipPath id="e00a95802d"><path d="M 31 72 L 48 72 L 48 97.347656 L 31 97.347656 Z M 31 72 " clip-rule="nonzero"/></clipPath><clipPath id="d8ae24d0f7"><path d="M 67.046875 56.5 L 113.546875 56.5 L 113.546875 103 L 67.046875 103 Z M 67.046875 56.5 " clip-rule="nonzero"/></clipPath></defs><g clip-path="url(#9b39b2abd8)"><path fill="#233dff" d="M 47.132812 88.078125 C 53.242188 86.976562 57.914062 81.601562 57.914062 75.1875 C 57.914062 67.988281 52.023438 62.097656 44.820312 62.097656 L 26.492188 62.097656 L 31.730469 67.332031 L 44.820312 67.332031 C 49.144531 67.332031 52.675781 70.867188 52.675781 75.1875 C 52.675781 79.511719 49.144531 83.046875 44.820312 83.046875 L 42.203125 83.046875 L 42.203125 91.039062 L 47.441406 88.015625 C 47.339844 88.039062 47.234375 88.058594 47.132812 88.078125 Z M 47.132812 88.078125 " fill-opacity="1" fill-rule="evenodd"/></g><g clip-path="url(#e00a95802d)"><path fill="#050a30" d="M 36.964844 88.28125 C 36.964844 84.789062 36.964844 81.300781 36.964844 77.808594 L 44.820312 77.808594 C 46.261719 77.808594 47.441406 76.628906 47.441406 75.1875 C 47.441406 73.75 46.261719 72.570312 44.820312 72.570312 L 31.730469 72.570312 C 31.730469 77.808594 31.730469 83.046875 31.730469 88.28125 L 31.730469 97.089844 L 36.964844 94.066406 Z M 36.964844 88.28125 " fill-opacity="1" fill-rule="evenodd"/></g><g clip-path="url(#d8ae24d0f7)"><path fill="#233dff" d="M 111.371094 91.753906 C 110.777344 91.164062 110.09375 90.703125 109.335938 90.378906 C 108.550781 90.046875 107.710938 89.871094 106.851562 89.871094 C 105.992188 89.871094 105.152344 90.035156 104.367188 90.378906 C 103.609375 90.703125 102.925781 91.164062 102.335938 91.753906 C 101.742188 92.347656 101.289062 93.03125 100.964844 93.789062 C 100.707031 94.398438 100.550781 95.042969 100.484375 95.699219 L 91.8125 95.699219 C 91.765625 95.359375 91.671875 95.015625 91.535156 94.691406 C 91.332031 94.210938 91.035156 93.769531 90.664062 93.398438 C 90.296875 93.03125 89.859375 92.734375 89.371094 92.53125 C 88.871094 92.320312 88.335938 92.207031 87.792969 92.207031 C 87.246094 92.207031 86.710938 92.320312 86.210938 92.53125 C 85.730469 92.734375 85.296875 93.03125 84.917969 93.398438 C 84.550781 93.769531 84.253906 94.210938 84.050781 94.691406 C 83.910156 95.015625 83.820312 95.347656 83.773438 95.699219 L 75.957031 95.699219 C 71.6875 95.699219 68.214844 92.214844 68.214844 87.9375 C 68.214844 83.660156 71.6875 80.179688 75.957031 80.179688 L 77.738281 80.179688 C 77.785156 80.519531 77.878906 80.863281 78.015625 81.183594 C 78.21875 81.664062 78.515625 82.109375 78.886719 82.480469 C 79.253906 82.847656 79.6875 83.144531 80.179688 83.347656 C 80.675781 83.558594 81.214844 83.671875 81.757812 83.671875 C 82.304688 83.671875 82.839844 83.558594 83.339844 83.347656 C 83.820312 83.144531 84.253906 82.847656 84.632812 82.480469 C 85.011719 82.109375 85.296875 81.664062 85.5 81.183594 C 85.640625 80.863281 85.730469 80.53125 85.777344 80.179688 L 94.195312 80.179688 C 94.242188 80.519531 94.332031 80.863281 94.472656 81.183594 C 94.675781 81.664062 94.96875 82.109375 95.339844 82.480469 C 95.710938 82.847656 96.144531 83.144531 96.632812 83.347656 C 97.132812 83.558594 97.667969 83.671875 98.214844 83.671875 C 98.757812 83.671875 99.292969 83.558594 99.792969 83.347656 C 100.273438 83.144531 100.707031 82.847656 101.085938 82.480469 C 101.457031 82.109375 101.753906 81.664062 101.957031 81.183594 C 102.09375 80.863281 102.1875 80.53125 102.230469 80.179688 L 104.339844 80.179688 C 105.539062 80.179688 106.703125 79.9375 107.804688 79.476562 C 108.867188 79.023438 109.816406 78.386719 110.628906 77.5625 C 111.445312 76.742188 112.089844 75.789062 112.535156 74.726562 C 112.996094 73.628906 113.234375 72.453125 113.234375 71.253906 C 113.234375 70.050781 113.003906 68.878906 112.535156 67.78125 C 112.082031 66.71875 111.445312 65.765625 110.628906 64.941406 C 109.816406 64.121094 108.855469 63.484375 107.804688 63.03125 C 106.703125 62.570312 105.539062 62.328125 104.339844 62.328125 L 96.199219 62.328125 C 96.152344 61.988281 96.0625 61.644531 95.921875 61.320312 C 95.71875 60.839844 95.421875 60.398438 95.054688 60.027344 C 94.683594 59.660156 94.25 59.363281 93.761719 59.160156 C 93.261719 58.945312 92.726562 58.835938 92.179688 58.835938 C 91.636719 58.835938 91.097656 58.945312 90.601562 59.160156 C 90.121094 59.363281 89.6875 59.660156 89.308594 60.027344 C 88.9375 60.398438 88.640625 60.839844 88.4375 61.320312 C 88.300781 61.644531 88.207031 61.976562 88.160156 62.328125 L 79.820312 62.328125 C 79.761719 61.671875 79.597656 61.027344 79.339844 60.414062 C 79.015625 59.648438 78.550781 58.964844 77.96875 58.382812 C 77.378906 57.792969 76.695312 57.332031 75.9375 57.007812 C 75.144531 56.664062 74.304688 56.5 73.445312 56.5 C 72.585938 56.5 71.742188 56.664062 70.957031 57.007812 C 70.199219 57.332031 69.515625 57.792969 68.925781 58.382812 C 68.335938 58.976562 67.882812 59.660156 67.558594 60.414062 C 67.214844 61.203125 67.050781 62.042969 67.050781 62.910156 C 67.050781 63.777344 67.214844 64.609375 67.550781 65.40625 C 67.871094 66.171875 68.335938 66.855469 68.917969 67.4375 C 69.507812 68.027344 70.191406 68.492188 70.949219 68.8125 C 71.734375 69.148438 72.574219 69.324219 73.433594 69.324219 C 74.292969 69.324219 75.132812 69.15625 75.917969 68.8125 C 76.675781 68.492188 77.359375 68.027344 77.953125 67.4375 C 78.542969 66.847656 78.996094 66.164062 79.320312 65.40625 C 79.578125 64.796875 79.734375 64.148438 79.800781 63.492188 L 88.144531 63.492188 C 88.1875 63.835938 88.28125 64.175781 88.421875 64.5 C 88.625 64.980469 88.917969 65.421875 89.289062 65.792969 C 89.65625 66.164062 90.09375 66.457031 90.582031 66.660156 C 91.082031 66.875 91.617188 66.984375 92.160156 66.984375 C 92.707031 66.984375 93.242188 66.875 93.742188 66.660156 C 94.222656 66.457031 94.65625 66.164062 95.035156 65.792969 C 95.40625 65.421875 95.699219 64.980469 95.902344 64.5 C 96.042969 64.175781 96.132812 63.84375 96.179688 63.492188 L 104.320312 63.492188 C 108.589844 63.492188 112.0625 66.976562 112.0625 71.253906 C 112.0625 75.53125 108.589844 79.015625 104.320312 79.015625 L 102.214844 79.015625 C 102.167969 78.671875 102.074219 78.332031 101.9375 78.007812 C 101.734375 77.527344 101.4375 77.082031 101.066406 76.714844 C 100.699219 76.34375 100.265625 76.046875 99.773438 75.84375 C 99.277344 75.632812 98.738281 75.523438 98.195312 75.523438 C 97.648438 75.523438 97.113281 75.632812 96.613281 75.84375 C 96.132812 76.046875 95.699219 76.34375 95.320312 76.714844 C 94.953125 77.082031 94.65625 77.527344 94.453125 78.007812 C 94.316406 78.332031 94.222656 78.664062 94.175781 79.015625 L 85.757812 79.015625 C 85.714844 78.671875 85.621094 78.332031 85.480469 78.007812 C 85.277344 77.527344 84.984375 77.082031 84.613281 76.714844 C 84.242188 76.34375 83.808594 76.046875 83.320312 75.84375 C 82.820312 75.632812 82.285156 75.523438 81.738281 75.523438 C 81.195312 75.523438 80.660156 75.632812 80.160156 75.84375 C 79.679688 76.046875 79.246094 76.34375 78.867188 76.714844 C 78.496094 77.082031 78.203125 77.527344 78 78.007812 C 77.859375 78.332031 77.765625 78.664062 77.722656 79.015625 L 75.957031 79.015625 C 74.753906 79.015625 73.589844 79.253906 72.492188 79.714844 C 71.429688 80.167969 70.476562 80.804688 69.664062 81.628906 C 68.851562 82.449219 68.203125 83.402344 67.761719 84.464844 C 67.300781 85.566406 67.058594 86.738281 67.058594 87.9375 C 67.058594 89.140625 67.289062 90.3125 67.761719 91.414062 C 68.214844 92.476562 68.851562 93.425781 69.664062 94.25 C 70.476562 95.070312 71.4375 95.710938 72.492188 96.160156 C 73.589844 96.625 74.753906 96.863281 75.957031 96.863281 L 83.773438 96.863281 C 83.820312 97.207031 83.910156 97.546875 84.050781 97.871094 C 84.253906 98.351562 84.550781 98.796875 84.917969 99.164062 C 85.289062 99.535156 85.722656 99.828125 86.210938 100.03125 C 86.710938 100.246094 87.246094 100.355469 87.792969 100.355469 C 88.335938 100.355469 88.871094 100.246094 89.371094 100.03125 C 89.851562 99.828125 90.285156 99.535156 90.664062 99.164062 C 91.035156 98.796875 91.332031 98.351562 91.535156 97.871094 C 91.671875 97.546875 91.765625 97.214844 91.8125 96.863281 L 100.484375 96.863281 C 100.542969 97.519531 100.707031 98.167969 100.964844 98.777344 C 101.289062 99.542969 101.753906 100.226562 102.335938 100.808594 C 102.917969 101.390625 103.609375 101.863281 104.367188 102.1875 C 105.152344 102.519531 105.992188 102.695312 106.851562 102.695312 C 107.710938 102.695312 108.550781 102.527344 109.335938 102.1875 C 110.09375 101.863281 110.777344 101.402344 111.371094 100.808594 C 111.960938 100.21875 112.414062 99.535156 112.738281 98.777344 C 113.070312 97.980469 113.234375 97.152344 113.234375 96.28125 C 113.234375 95.414062 113.070312 94.582031 112.738281 93.789062 C 112.421875 93.03125 111.960938 92.335938 111.371094 91.753906 Z M 73.445312 68.160156 C 70.5625 68.160156 68.203125 65.800781 68.203125 62.910156 C 68.203125 60.007812 70.5625 57.664062 73.445312 57.664062 C 76.324219 57.664062 78.683594 60.019531 78.683594 62.910156 C 78.683594 65.800781 76.335938 68.160156 73.445312 68.160156 Z M 92.179688 65.820312 C 90.582031 65.820312 89.277344 64.519531 89.277344 62.910156 C 89.277344 61.304688 90.582031 60 92.179688 60 C 93.777344 60 95.082031 61.304688 95.082031 62.910156 C 95.082031 64.519531 93.777344 65.820312 92.179688 65.820312 Z M 98.214844 76.6875 C 99.8125 76.6875 101.113281 77.988281 101.113281 79.597656 C 101.113281 81.203125 99.8125 82.507812 98.214844 82.507812 C 96.613281 82.507812 95.3125 81.203125 95.3125 79.597656 C 95.3125 77.988281 96.613281 76.6875 98.214844 76.6875 Z M 81.757812 76.6875 C 83.355469 76.6875 84.660156 77.988281 84.660156 79.597656 C 84.660156 81.203125 83.355469 82.507812 81.757812 82.507812 C 80.160156 82.507812 78.859375 81.203125 78.859375 79.597656 C 78.859375 77.988281 80.152344 76.6875 81.757812 76.6875 Z M 87.792969 99.191406 C 86.195312 99.191406 84.890625 97.890625 84.890625 96.28125 C 84.890625 94.675781 86.195312 93.371094 87.792969 93.371094 C 89.390625 93.371094 90.691406 94.675781 90.691406 96.28125 C 90.691406 97.890625 89.390625 99.191406 87.792969 99.191406 Z M 106.851562 101.53125 C 103.96875 101.53125 101.613281 99.171875 101.613281 96.28125 C 101.613281 93.390625 103.960938 91.035156 106.851562 91.035156 C 109.734375 91.035156 112.089844 93.390625 112.089844 96.28125 C 112.089844 99.183594 109.734375 101.53125 106.851562 101.53125 Z M 106.851562 101.53125 " fill-opacity="1" fill-rule="nonzero"/></g><path fill="#233dff" d="M 106.851562 92.289062 C 105.789062 92.289062 104.792969 92.707031 104.035156 93.464844 C 103.277344 94.222656 102.871094 95.21875 102.871094 96.28125 C 102.871094 97.34375 103.285156 98.351562 104.035156 99.101562 C 104.78125 99.859375 105.789062 100.273438 106.851562 100.273438 C 107.914062 100.273438 108.914062 99.859375 109.667969 99.101562 C 110.417969 98.34375 110.832031 97.34375 110.832031 96.28125 C 110.832031 95.21875 110.417969 94.210938 109.667969 93.464844 C 108.914062 92.707031 107.914062 92.289062 106.851562 92.289062 Z M 106.851562 99.117188 C 105.300781 99.117188 104.023438 97.851562 104.023438 96.292969 C 104.023438 94.730469 105.289062 93.464844 106.851562 93.464844 C 108.402344 93.464844 109.679688 94.730469 109.679688 96.292969 C 109.679688 97.84375 108.402344 99.117188 106.851562 99.117188 Z M 106.851562 99.117188 " fill-opacity="1" fill-rule="nonzero"/><path fill="#233dff" d="M 108.300781 96.28125 C 108.300781 96.476562 108.265625 96.660156 108.191406 96.839844 C 108.117188 97.019531 108.011719 97.175781 107.878906 97.3125 C 107.742188 97.449219 107.585938 97.554688 107.40625 97.628906 C 107.230469 97.703125 107.042969 97.742188 106.851562 97.742188 C 106.660156 97.742188 106.472656 97.703125 106.296875 97.628906 C 106.117188 97.554688 105.960938 97.449219 105.828125 97.3125 C 105.691406 97.175781 105.585938 97.019531 105.511719 96.839844 C 105.4375 96.660156 105.402344 96.476562 105.402344 96.28125 C 105.402344 96.089844 105.4375 95.902344 105.511719 95.722656 C 105.585938 95.542969 105.691406 95.386719 105.828125 95.25 C 105.960938 95.113281 106.117188 95.007812 106.296875 94.933594 C 106.472656 94.859375 106.660156 94.820312 106.851562 94.820312 C 107.042969 94.820312 107.230469 94.859375 107.40625 94.933594 C 107.585938 95.007812 107.742188 95.113281 107.878906 95.25 C 108.011719 95.386719 108.117188 95.542969 108.191406 95.722656 C 108.265625 95.902344 108.300781 96.089844 108.300781 96.28125 Z M 108.300781 96.28125 " fill-opacity="1" fill-rule="nonzero"/><path fill="#233dff" d="M 73.574219 61.738281 L 71.011719 61.738281 L 71.011719 64.074219 L 73.574219 64.074219 L 73.574219 65.191406 L 76.972656 62.910156 L 73.574219 60.621094 Z M 73.574219 61.738281 " fill-opacity="1" fill-rule="nonzero"/></svg>