<svg width="167" height="20" viewBox="0 0 167 20" fill="none" xmlns="http://www.w3.org/2000/svg">
<g clip-path="url(#clip0_502_207)">
<path d="M156.109 5.94169L156.989 7.85002L157.416 8.77502L158.505 8.85835L160.747 9.03335L159.04 10.3917L158.214 11.05L158.459 12.0334L158.968 14.0417L157.044 12.975L156.109 12.4417L155.174 12.9584L153.25 14.025L153.758 12.0167L154.003 11.0334L153.177 10.375L151.471 9.01669L153.713 8.84169L154.802 8.75835L155.228 7.83335L156.109 5.94169V5.94169ZM156.109 1.66669L153.558 7.19169L147.033 7.70002L151.988 11.6417L150.5 17.5L156.109 14.3917L161.718 17.5L160.229 11.6417L165.185 7.70002L158.659 7.19169L156.109 1.66669Z" fill="#0C3594" fill-opacity="0.678431"/>
</g>
<path d="M121.45 5.75651L122.33 7.66484L122.757 8.58984L123.846 8.67317L126.088 8.84817L124.382 10.2065L123.556 10.8648L123.801 11.8482L124.309 13.8565L122.385 12.7898L121.45 12.2565L120.515 12.7732L118.591 13.8398L119.099 11.8315L119.344 10.8482L118.518 10.1898L116.812 8.83151L119.054 8.65651L120.143 8.57317L120.57 7.64817L121.45 5.75651V5.75651ZM121.45 1.48151L118.9 7.00651L112.374 7.51484L117.329 11.4565L115.841 17.3148L121.45 14.2065L127.059 17.3148L125.57 11.4565L130.526 7.51484L124 7.00651L121.45 1.48151Z" fill="#0C3594" fill-opacity="0.678431"/>
<path d="M83.2116 6.49723L84.092 8.40556L84.5185 9.33056L85.6077 9.4139L87.8495 9.5889L86.1432 10.9472L85.3172 11.6056L85.5623 12.5889L86.0706 14.5972L84.1464 13.5306L83.2116 12.9972L82.2767 13.5139L80.3526 14.5806L80.8609 12.5722L81.1059 11.5889L80.28 10.9306L78.5737 9.57223L80.8155 9.39723L81.9046 9.3139L82.3312 8.3889L83.2116 6.49723ZM83.2116 2.22223L80.6612 7.74723L74.1355 8.25556L79.091 12.1972L77.6026 18.0556L83.2116 14.9472L88.8206 18.0556L87.3321 12.1972L92.2877 8.25556L85.762 7.74723L83.2116 2.22223Z" fill="#0C3594" fill-opacity="0.678431"/>
<path d="M47.3144 6.49723L48.1948 8.40556L48.6214 9.33056L49.7105 9.4139L51.9523 9.5889L50.246 10.9472L49.4201 11.6056L49.6651 12.5889L50.1734 14.5972L48.2493 13.5306L47.3144 12.9972L46.3796 13.5139L44.4555 14.5806L44.9637 12.5722L45.2088 11.5889L44.3829 10.9306L42.6765 9.57223L44.9183 9.39723L46.0075 9.3139L46.434 8.3889L47.3144 6.49723ZM47.3144 2.22223L44.764 7.74723L38.2383 8.25556L43.1939 12.1972L41.7054 18.0556L47.3144 14.9472L52.9235 18.0556L51.435 12.1972L56.3905 8.25556L49.8648 7.74723L47.3144 2.22223Z" fill="#0C3594" fill-opacity="0.678431"/>
<path d="M10.6368 6.49723L11.5172 8.40556L11.9438 9.33056L13.0329 9.4139L15.2747 9.5889L13.5684 10.9472L12.7425 11.6056L12.9875 12.5889L13.4958 14.5972L11.5717 13.5306L10.6368 12.9972L9.70198 13.5139L7.77785 14.5806L8.28611 12.5722L8.53116 11.5889L7.70524 10.9306L5.99894 9.57223L8.24073 9.39723L9.32986 9.3139L9.75644 8.3889L10.6368 6.49723ZM10.6368 2.22223L8.08644 7.74723L1.56073 8.25556L6.51627 12.1972L5.02779 18.0556L10.6368 14.9472L16.2458 18.0556L14.7574 12.1972L19.7129 8.25556L13.1872 7.74723L10.6368 2.22223Z" fill="#0C3594" fill-opacity="0.678431"/>
<defs>
<clipPath id="clip0_502_207">
<rect width="21.7826" height="20" fill="white" transform="translate(145.217)"/>
</clipPath>
</defs>
</svg>
