<svg width="167" height="20" viewBox="0 0 167 20" fill="none" xmlns="http://www.w3.org/2000/svg">
<g clip-path="url(#clip0_502_71)">
<path d="M10.8913 14.3917L16.5004 17.5L15.0119 11.6417L19.9674 7.70002L13.4417 7.19169L10.8913 1.66669L8.34095 7.19169L1.81525 7.70002L6.77079 11.6417L5.28231 17.5L10.8913 14.3917Z" fill="#0C3594" fill-opacity="0.678431"/>
</g>
<g clip-path="url(#clip1_502_71)">
<path d="M47.1957 14.3917L52.8047 17.5L51.3162 11.6417L56.2717 7.70002L49.746 7.19169L47.1957 1.66669L44.6453 7.19169L38.1196 7.70002L43.0751 11.6417L41.5866 17.5L47.1957 14.3917Z" fill="#0C3594" fill-opacity="0.678431"/>
</g>
<g clip-path="url(#clip2_502_71)">
<path d="M156.109 5.94169L156.989 7.85002L157.416 8.77502L158.505 8.85835L160.747 9.03335L159.04 10.3917L158.214 11.05L158.459 12.0334L158.968 14.0417L157.044 12.975L156.109 12.4417L155.174 12.9584L153.25 14.025L153.758 12.0167L154.003 11.0334L153.177 10.375L151.471 9.01669L153.713 8.84169L154.802 8.75835L155.228 7.83335L156.109 5.94169V5.94169ZM156.109 1.66669L153.558 7.19169L147.033 7.70002L151.988 11.6417L150.5 17.5L156.109 14.3917L161.718 17.5L160.229 11.6417L165.185 7.70002L158.659 7.19169L156.109 1.66669Z" fill="#0C3594" fill-opacity="0.678431"/>
</g>
<path d="M83.5 14.5786L89.2872 17.7778L87.7515 11.7482L92.8645 7.69125L86.1314 7.16806L83.5 1.48151L80.8686 7.16806L74.1355 7.69125L79.2485 11.7482L77.7127 17.7778L83.5 14.5786Z" fill="#0C3594" fill-opacity="0.678431"/>
<path d="M121.45 5.75651L122.33 7.66484L122.757 8.58984L123.846 8.67317L126.088 8.84817L124.382 10.2065L123.556 10.8648L123.801 11.8482L124.309 13.8565L122.385 12.7898L121.45 12.2565L120.515 12.7732L118.591 13.8398L119.099 11.8315L119.344 10.8482L118.518 10.1898L116.812 8.83151L119.054 8.65651L120.143 8.57317L120.57 7.64817L121.45 5.75651V5.75651ZM121.45 1.48151L118.9 7.00651L112.374 7.51484L117.329 11.4565L115.841 17.3148L121.45 14.2065L127.059 17.3148L125.57 11.4565L130.526 7.51484L124 7.00651L121.45 1.48151Z" fill="#0C3594" fill-opacity="0.678431"/>
<defs>
<clipPath id="clip0_502_71">
<rect width="21.7826" height="20" fill="white"/>
</clipPath>
<clipPath id="clip1_502_71">
<rect width="21.7826" height="20" fill="white" transform="translate(36.3043)"/>
</clipPath>
<clipPath id="clip2_502_71">
<rect width="21.7826" height="20" fill="white" transform="translate(145.217)"/>
</clipPath>
</defs>
</svg>
