<svg width="167" height="20" viewBox="0 0 167 20" fill="none" xmlns="http://www.w3.org/2000/svg">
<g clip-path="url(#clip0_502_70)">
<path d="M10.8913 14.3917L16.5004 17.5L15.0119 11.6417L19.9674 7.70002L13.4417 7.19169L10.8913 1.66669L8.34095 7.19169L1.81525 7.70002L6.77079 11.6417L5.28231 17.5L10.8913 14.3917Z" fill="#0C3594" fill-opacity="0.678431"/>
</g>
<g clip-path="url(#clip1_502_70)">
<path d="M47.1957 14.3917L52.8047 17.5L51.3162 11.6417L56.2717 7.70002L49.746 7.19169L47.1957 1.66669L44.6453 7.19169L38.1196 7.70002L43.0751 11.6417L41.5866 17.5L47.1957 14.3917Z" fill="#0C3594" fill-opacity="0.678431"/>
</g>
<path d="M83.5 14.5786L89.2872 17.7778L87.7515 11.7482L92.8645 7.69125L86.1314 7.16806L83.5 1.48151L80.8686 7.16806L74.1355 7.69125L79.2485 11.7482L77.7127 17.7778L83.5 14.5786Z" fill="#0C3594" fill-opacity="0.678431"/>
<path d="M121.348 14.724L126.894 17.7778L125.422 12.0222L130.322 8.14971L123.87 7.6503L121.348 2.22223L118.826 7.6503L112.374 8.14971L117.274 12.0222L115.802 17.7778L121.348 14.724Z" fill="#0C3594" fill-opacity="0.678431"/>
<path d="M155.685 14.724L161.231 17.7778L159.759 12.0222L164.659 8.14971L158.206 7.6503L155.685 2.22223L153.163 7.6503L146.71 8.14971L151.61 12.0222L150.138 17.7778L155.685 14.724Z" fill="#0C3594" fill-opacity="0.678431"/>
<defs>
<clipPath id="clip0_502_70">
<rect width="21.7826" height="20" fill="white"/>
</clipPath>
<clipPath id="clip1_502_70">
<rect width="21.7826" height="20" fill="white" transform="translate(36.3043)"/>
</clipPath>
</defs>
</svg>
